<svg width="122" height="124" viewBox="0 0 122 124" fill="none" xmlns="http://www.w3.org/2000/svg">
<path d="M59.3465 3.80282C59.975 2.35738 62.025 2.35737 62.6535 3.80282L64.0131 6.92973C64.5851 8.24523 66.3897 8.39841 67.1752 7.19814L69.0389 4.35053C69.9019 3.03185 71.9223 3.37711 72.2985 4.90756L73.1143 8.22704C73.4566 9.61969 75.209 10.0747 76.1856 9.02456L78.5007 6.53506C79.5736 5.38136 81.5061 6.06186 81.6194 7.63326L81.8659 11.0523C81.969 12.482 83.6184 13.2256 84.758 12.3561L87.4604 10.2941C88.7123 9.33892 90.5012 10.3349 90.3487 11.9022L90.0158 15.3237C89.877 16.7494 91.376 17.7597 92.6455 17.0963L95.6607 15.5204C97.0554 14.7914 98.6492 16.074 98.2354 17.5924L97.3294 20.9174C96.953 22.2983 98.2585 23.5461 99.621 23.1079L102.865 22.0643C104.363 21.5828 105.715 23.1149 105.052 24.5409L103.597 27.6719C102.994 28.9687 104.068 30.4177 105.484 30.2173L108.867 29.7385C110.423 29.5182 111.496 31.2556 110.603 32.5486L108.638 35.3924C107.826 36.5682 108.639 38.1766 110.067 38.2195L113.492 38.3224C115.062 38.3695 115.825 40.2622 114.726 41.3853L112.309 43.8568C111.311 44.8779 111.839 46.5996 113.239 46.8843L116.606 47.569C118.144 47.882 118.575 49.8757 117.304 50.7964L114.506 52.8218C113.349 53.6591 113.578 55.4447 114.909 55.9626L118.119 57.212C119.582 57.7814 119.669 59.8189 118.259 60.5107L115.164 62.0304C113.882 62.6596 113.806 64.458 115.029 65.1939L117.987 66.973C119.332 67.7822 119.072 69.805 117.566 70.2479L114.266 71.2182C112.896 71.621 112.515 73.3809 113.597 74.3135L116.214 76.5704C117.403 77.596 116.804 79.5462 115.244 79.7269L111.836 80.1218C110.417 80.2862 109.744 81.9573 110.653 83.0597L112.852 85.7273C113.851 86.9397 112.929 88.7613 111.361 88.6745L107.945 88.4854C106.518 88.4064 105.57 89.9406 106.281 91.1814L107.997 94.1799C108.778 95.5444 107.56 97.185 106.028 96.8329L102.703 96.0686C101.309 95.7481 100.114 97.1014 100.606 98.4451L101.791 101.685C102.331 103.163 100.852 104.575 99.4012 103.968L96.2605 102.653C94.9396 102.1 93.5324 103.233 93.7909 104.642L94.4122 108.027C94.6964 109.576 92.9989 110.719 91.6708 109.874L88.8021 108.048C87.5932 107.279 86.0133 108.159 86.0312 109.592L86.0742 113.025C86.0939 114.6 84.2264 115.441 83.0598 114.383L80.5423 112.099C79.4804 111.135 77.7733 111.737 77.5499 113.153L77.0165 116.534C76.7709 118.091 74.7873 118.606 73.8158 117.365L71.7191 114.687C70.8349 113.558 69.0499 113.863 68.5911 115.222L67.4993 118.457C66.9952 119.95 64.9526 120.123 64.2042 118.736L62.5868 115.738C61.9056 114.476 60.0944 114.476 59.4132 115.738L57.7958 118.736C57.0474 120.123 55.0048 119.95 54.5007 118.457L53.4088 115.222C52.9501 113.863 51.1651 113.558 50.2809 114.687L48.1842 117.365C47.2127 118.606 45.2291 118.091 44.9835 116.534L44.4501 113.153C44.2267 111.737 42.5196 111.135 41.4577 112.099L38.9402 114.383C37.7736 115.441 35.9061 114.6 35.9258 113.025L35.9688 109.592C35.9867 108.159 34.4068 107.279 33.1979 108.048L30.3292 109.874C29.0011 110.719 27.3036 109.576 27.5878 108.027L28.2091 104.642C28.4676 103.233 27.0604 102.1 25.7395 102.653L22.5988 103.968C21.1476 104.575 19.6689 103.163 20.2093 101.685L21.3942 98.4451C21.8856 97.1014 20.6913 95.7481 19.297 96.0686L15.9718 96.8329C14.4396 97.185 13.222 95.5444 14.0031 94.1799L15.7195 91.1814C16.4297 89.9406 15.4824 88.4064 14.055 88.4854L10.6394 88.6745C9.07056 88.7613 8.14903 86.9397 9.14843 85.7273L11.3475 83.0597C12.2562 81.9573 11.5829 80.2862 10.1637 80.1218L6.75587 79.7269C5.19584 79.5462 4.59659 77.596 5.78594 76.5704L8.40322 74.3135C9.48473 73.3809 9.10441 71.621 7.73433 71.2182L4.43384 70.2479C2.92757 69.805 2.66766 67.7822 4.01307 66.973L6.97081 65.1939C8.19431 64.458 8.11771 62.6596 6.83606 62.0304L3.74066 60.5107C2.3314 59.8189 2.41825 57.7814 3.88127 57.212L7.09117 55.9626C8.4218 55.4447 8.65107 53.6591 7.49445 52.8218L4.69648 50.7964C3.42456 49.8757 3.85567 47.882 5.39437 47.569L8.76096 46.8843C10.1606 46.5996 10.6893 44.8779 9.69063 43.8568L7.27353 41.3853C6.17524 40.2622 6.93835 38.3695 8.50844 38.3224L11.9326 38.2195C13.3611 38.1766 14.1743 36.5682 13.3619 35.3924L11.397 32.5486C10.5037 31.2556 11.577 29.5182 13.1332 29.7385L16.5156 30.2173C17.9317 30.4177 19.0063 28.9687 18.4033 27.6719L16.9476 24.5409C16.2845 23.1149 17.6375 21.5828 19.1346 22.0643L22.379 23.1079C23.7415 23.5461 25.047 22.2983 24.6706 20.9174L23.7646 17.5924C23.3508 16.074 24.9446 14.7914 26.3393 15.5204L29.3545 17.0963C30.624 17.7597 32.123 16.7494 31.9842 15.3237L31.6513 11.9022C31.4988 10.3349 33.2877 9.33891 34.5396 10.2941L37.242 12.3561C38.3816 13.2256 40.031 12.482 40.1341 11.0523L40.3806 7.63326C40.4939 6.06186 42.4264 5.38136 43.4993 6.53506L45.8144 9.02457C46.791 10.0747 48.5434 9.61969 48.8857 8.22704L49.7015 4.90756C50.0777 3.37711 52.0981 3.03185 52.9611 4.35053L54.8248 7.19814C55.6103 8.39842 57.4149 8.24523 57.9869 6.92973L59.3465 3.80282Z" fill="#3B2514"/>
<path d="M59.3344 12.1302C59.9495 10.647 62.0504 10.647 62.6655 12.1302L63.3458 13.771C63.9074 15.1253 65.7646 15.2788 66.5409 14.035L67.4514 12.5762C68.3006 11.2156 70.3704 11.5579 70.7364 13.1194L71.1606 14.9291C71.4943 16.3528 73.2948 16.808 74.265 15.714L75.3897 14.4459C76.4504 13.2498 78.4277 13.9236 78.5374 15.5186L78.6717 17.4718C78.7715 18.9233 80.4608 19.6649 81.5969 18.756L82.928 17.691C84.17 16.6973 85.9967 17.6817 85.8497 19.2655L85.6591 21.3188C85.5256 22.7575 87.0539 23.7609 88.321 23.0665L89.8532 22.2268C91.2393 21.4672 92.8624 22.7317 92.4648 24.2615L91.9218 26.3511C91.5613 27.7382 92.885 28.9711 94.243 28.5131L95.9654 27.9322C97.4526 27.4306 98.8261 28.9368 98.1899 30.3715L97.283 32.4167C96.707 33.7159 97.7903 35.1397 99.196 34.9311L101.084 34.6509C102.625 34.422 103.712 36.125 102.854 37.4264L101.595 39.3365C100.82 40.514 101.635 42.0863 103.044 42.1307L105.052 42.194C106.601 42.2427 107.371 44.0929 106.314 45.2259L104.743 46.9108C103.787 47.9357 104.314 49.6116 105.685 49.9039L107.748 50.3438C109.257 50.6656 109.691 52.6106 108.462 53.5434L106.642 54.9249C105.53 55.7691 105.758 57.5028 107.051 58.0304L109.085 58.8606C110.511 59.4425 110.598 61.4283 109.229 62.133L107.243 63.1552C106.003 63.7939 105.926 65.539 107.107 66.2834L109.021 67.4906C110.324 68.3125 110.062 70.2847 108.59 70.7386L106.53 71.3736C105.194 71.7855 104.815 73.4961 105.852 74.434L107.557 75.9757C108.704 77.0124 108.1 78.9166 106.566 79.103L104.521 79.3514C103.125 79.521 102.452 81.1508 103.321 82.2557L104.742 84.0639C105.702 85.2853 104.771 87.0683 103.22 86.9782L101.265 86.8648C99.8524 86.7827 98.9002 88.2863 99.5783 89.5287L100.664 91.5179C101.414 92.8906 100.18 94.5011 98.6592 94.1347L96.8499 93.6986C95.4626 93.3642 94.255 94.6977 94.725 96.0452L95.4499 98.1236C95.9686 99.6108 94.465 101.001 93.0228 100.368L91.3934 99.6532C90.0756 99.0748 88.6446 100.197 88.8927 101.615L89.2569 103.696C89.5303 105.258 87.7992 106.387 86.4801 105.506L85.0476 104.55C83.8413 103.746 82.2267 104.622 82.244 106.072L82.268 108.082C82.287 109.677 80.378 110.509 79.2224 109.41L77.9939 108.241C76.9368 107.235 75.1853 107.836 74.9682 109.279L74.6845 111.165C74.4462 112.749 72.4151 113.259 71.4568 111.975L70.4379 110.611C69.5616 109.437 67.7257 109.743 67.2769 111.137L66.7208 112.864C66.2289 114.392 64.1357 114.564 63.4012 113.137L62.6032 111.586C61.9321 110.282 60.0678 110.282 59.3967 111.586L58.5987 113.137C57.8642 114.564 55.771 114.392 55.2791 112.864L54.723 111.137C54.2742 109.743 52.4383 109.437 51.562 110.611L50.5431 111.975C49.5848 113.259 47.5537 112.749 47.3154 111.165L47.0317 109.279C46.8146 107.836 45.0631 107.235 44.006 108.241L42.7775 109.41C41.6219 110.509 39.7129 109.677 39.7319 108.082L39.7559 106.072C39.7732 104.622 38.1586 103.746 36.9523 104.55L35.5198 105.506C34.2007 106.386 32.4696 105.258 32.743 103.696L33.1072 101.615C33.3553 100.197 31.9243 99.0748 30.6065 99.6532L28.9771 100.368C27.5349 101.001 26.0313 99.6108 26.55 98.1236L27.2749 96.0452C27.7449 94.6977 26.5373 93.3643 25.15 93.6986L23.3407 94.1347C21.8203 94.5011 20.5863 92.8906 21.3356 91.5179L22.4216 89.5287C23.0997 88.2863 22.1475 86.7827 20.7345 86.8648L18.7796 86.9782C17.2286 87.0683 16.2975 85.2853 17.2577 84.0639L18.6793 82.2557C19.5479 81.1507 18.8744 79.521 17.4793 79.3514L15.4343 79.103C13.9 78.9166 13.2961 77.0124 14.4426 75.9757L16.1477 74.434C17.185 73.4961 16.806 71.7855 15.4696 71.3736L13.41 70.7386C11.9376 70.2847 11.6761 68.3125 12.9793 67.4906L14.8933 66.2834C16.0735 65.539 15.9973 63.7939 14.7567 63.1552L12.7711 62.133C11.402 61.4283 11.4894 59.4425 12.915 58.8606L14.9492 58.0304C16.242 57.5028 16.4702 55.7691 15.358 54.9249L13.538 53.5434C12.3091 52.6106 12.7432 50.6656 14.252 50.3438L16.3147 49.9039C17.6854 49.6116 18.2131 47.9357 17.2572 46.9108L15.6858 45.2259C14.629 44.0929 15.399 42.2427 16.9476 42.194L18.9557 42.1307C20.3651 42.0863 21.1804 40.514 20.4045 39.3365L19.1459 37.4264C18.2884 36.125 19.3745 34.422 20.9162 34.6509L22.8039 34.9311C24.2096 35.1397 25.2929 33.7159 24.7169 32.4167L23.81 30.3715C23.1738 28.9368 24.5473 27.4306 26.0345 27.9322L27.7568 28.5131C29.1149 28.9711 30.4386 27.7382 30.0781 26.3511L29.5351 24.2615C29.1376 22.7317 30.7607 21.4672 32.1467 22.2268L33.6789 23.0665C34.946 23.7609 36.4743 22.7575 36.3408 21.3188L36.1502 19.2655C36.0032 17.6817 37.8299 16.6973 39.0719 17.691L40.403 18.756C41.5391 19.6649 43.2284 18.9233 43.3282 17.4718L43.4625 15.5186C43.5722 13.9236 45.5495 13.2498 46.6102 14.4459L47.7349 15.714C48.7051 16.808 50.5056 16.3528 50.8393 14.9291L51.2635 13.1194C51.6295 11.5579 53.6993 11.2156 54.5485 12.5762L55.459 14.035C56.2353 15.2788 58.0925 15.1253 58.6541 13.771L59.3344 12.1302Z" fill="#61432F"/>
<circle cx="33.6106" cy="39.8233" r="8.82334" fill="#FFE6BB"/>
<circle cx="33.1581" cy="39.8128" r="6.10847" fill="#ECC79F"/>
<circle cx="86.4616" cy="39.8233" r="8.82334" fill="#FFE6BB"/>
<circle cx="86.0092" cy="39.8128" r="6.10847" fill="#ECC79F"/>
<path d="M23.3534 60.2051C28.4758 45.24 42.5837 35.0706 58.4011 35.0706H63.2541C79.2433 35.0706 93.4296 45.3258 98.4432 60.5086L98.604 60.9957C100.95 68.1009 102.489 75.4477 103.191 82.8973C105.234 104.572 88.185 123.304 66.4142 123.304H54.725C33.3567 123.304 16.5673 105.014 18.3916 83.724C19.0767 75.7296 20.755 67.7964 23.3534 60.2051Z" fill="#FFE6BB"/>
<circle cx="37.5106" cy="88.7447" r="4.89362" fill="#FFCEB9"/>
<circle cx="84.4894" cy="88.7447" r="4.89362" fill="#FFCEB9"/>
<path d="M74.7021 71.4346C74.7021 67.4814 68.86 64.2766 60.4674 64.2766C52.0747 64.2766 47.2979 67.4814 47.2979 71.4346C47.2979 75.3879 52.0747 83.8511 60.4674 83.8511C68.86 83.8511 74.7021 75.3879 74.7021 71.4346Z" fill="#ECC79F"/>
<rect x="59.9409" y="72.4327" width="1.60441" height="6.41763" rx="0.802204" fill="#3A211F"/>
<ellipse cx="61.0105" cy="71.0957" rx="4.81322" ry="2.94141" fill="#3A211F"/>
<circle cx="58.069" cy="70.0262" r="0.802204" fill="white"/>
<path d="M55.1277 76.4438C57.8017 78.8505 63.7439 78.8505 66.418 76.4438" stroke="#3A211F" stroke-width="1.76467" stroke-linecap="round"/>
<circle cx="42.8936" cy="62.4156" r="4.40426" fill="#3A211F"/>
<circle cx="44.1131" cy="61.4652" r="1.46809" fill="white"/>
<circle cx="4.40426" cy="4.40426" r="4.40426" transform="matrix(-1 0 0 1 82.7924 58.0114)" fill="#3A211F"/>
<circle cx="1.46809" cy="1.46809" r="1.46809" transform="matrix(-1 0 0 1 81.5452 59.9971)" fill="white"/>
<path d="M43.543 70.6872C37.8241 70.185 34.58 70.0574 28.7021 70.2087" stroke="#ECC79F" stroke-width="1.46809" stroke-linecap="round" stroke-linejoin="round"/>
<path d="M42.073 79.4505C37.1341 80.2977 34.4303 80.9224 29.7694 82.4046" stroke="#ECC79F" stroke-width="1.46809" stroke-linecap="round" stroke-linejoin="round"/>
<path d="M41.6879 75.2334C36.5246 75.0263 34.0035 75.3475 28.8474 75.7879" stroke="#ECC79F" stroke-width="1.46809" stroke-linecap="round" stroke-linejoin="round"/>
<path d="M77.7983 70.6872C83.5172 70.185 86.7613 70.0574 92.6392 70.2087" stroke="#ECC79F" stroke-width="1.46809" stroke-linecap="round" stroke-linejoin="round"/>
<path d="M79.2683 79.4505C84.2072 80.2977 86.911 80.9224 91.5719 82.4046" stroke="#ECC79F" stroke-width="1.46809" stroke-linecap="round" stroke-linejoin="round"/>
<path d="M78.6748 75.2334C83.838 75.0263 86.3591 75.3475 91.5152 75.7879" stroke="#ECC79F" stroke-width="1.46809" stroke-linecap="round" stroke-linejoin="round"/>
</svg>
