<svg width="561" height="433" viewBox="0 0 561 433" fill="none" xmlns="http://www.w3.org/2000/svg">
<mask id="path-1-inside-1_102_2" fill="white">
<path fill-rule="evenodd" clip-rule="evenodd" d="M428.499 126.502C426.801 131.27 425.069 135.322 423.296 138.746C452.498 170.392 470 211.966 470 257.5C457.5 357.5 399 410.5 281 430C166.501 448.922 83.0009 356 100 250.5C100 242.664 100.468 234.988 101.384 227.497C67.1202 200.754 33.2122 140.103 46.2086 120.976C59.413 101.543 117.643 101.952 153.882 124.131C185.666 95.174 229.695 78.0001 281 78.0001C295.445 78.0001 309.463 79.4916 322.9 82.3187C323.385 78.9898 324.236 75.5501 325.499 72.0023C340.045 31.1529 389.144 -6.13786 411.999 2.00069C434.854 10.1392 443.045 85.6529 428.499 126.502Z"/>
</mask>
<path fill-rule="evenodd" clip-rule="evenodd" d="M428.499 126.502C426.801 131.27 425.069 135.322 423.296 138.746C452.498 170.392 470 211.966 470 257.5C457.5 357.5 399 410.5 281 430C166.501 448.922 83.0009 356 100 250.5C100 242.664 100.468 234.988 101.384 227.497C67.1202 200.754 33.2122 140.103 46.2086 120.976C59.413 101.543 117.643 101.952 153.882 124.131C185.666 95.174 229.695 78.0001 281 78.0001C295.445 78.0001 309.463 79.4916 322.9 82.3187C323.385 78.9898 324.236 75.5501 325.499 72.0023C340.045 31.1529 389.144 -6.13786 411.999 2.00069C434.854 10.1392 443.045 85.6529 428.499 126.502Z" fill="white"/>
<path d="M423.296 138.746L419.744 136.908L418.455 139.398L420.357 141.459L423.296 138.746ZM428.499 126.502L424.731 125.16V125.16L428.499 126.502ZM470 257.5L473.969 257.996L474 257.749V257.5H470ZM281 430L281.652 433.947L281 430ZM100 250.5L103.949 251.136L104 250.82V250.5H100ZM101.384 227.497L105.354 227.982L105.628 225.736L103.845 224.344L101.384 227.497ZM46.2086 120.976L42.9001 118.728H42.9001L46.2086 120.976ZM153.882 124.131L151.793 127.543L154.355 129.111L156.575 127.088L153.882 124.131ZM322.9 82.3187L322.077 86.233L326.245 87.1099L326.859 82.8952L322.9 82.3187ZM325.499 72.0023L321.731 70.6605V70.6605L325.499 72.0023ZM411.999 2.00069L410.657 5.7689L411.999 2.00069ZM426.849 140.585C428.721 136.966 430.523 132.742 432.267 127.844L424.731 125.16C423.079 129.797 421.416 133.677 419.744 136.908L426.849 140.585ZM474 257.5C474 210.914 456.087 168.383 426.236 136.034L420.357 141.459C448.909 172.401 466 213.018 466 257.5H474ZM281.652 433.947C341.072 424.127 386.037 405.794 417.756 376.894C449.553 347.924 467.63 308.712 473.969 257.996L466.031 257.004C459.87 306.289 442.447 343.576 412.368 370.981C382.213 398.456 338.928 416.373 280.348 426.054L281.652 433.947ZM96.0509 249.864C78.6416 357.91 164.306 453.338 281.652 433.947L280.348 426.054C168.695 444.505 87.3603 354.09 103.949 251.136L96.0509 249.864ZM97.413 227.012C96.4779 234.667 96 242.504 96 250.5H104C104 242.823 104.459 235.31 105.354 227.982L97.413 227.012ZM42.9001 118.728C38.6961 124.915 38.6715 133.697 40.6175 142.767C42.6079 152.044 46.8702 162.615 52.5436 173.261C63.8766 194.529 81.2511 216.858 98.9223 230.651L103.845 224.344C87.2527 211.394 70.5415 190.025 59.6037 169.499C54.1417 159.249 50.2224 149.399 48.4395 141.089C46.6123 132.572 47.2228 126.601 49.5171 123.224L42.9001 118.728ZM155.97 120.72C137.129 109.189 112.787 103.408 91.4932 102.95C80.8268 102.721 70.7447 103.823 62.3652 106.318C54.0757 108.788 46.9425 112.779 42.9001 118.728L49.5171 123.224C52.0769 119.457 57.1741 116.212 64.6489 113.986C72.0338 111.786 81.2499 110.732 91.3213 110.948C111.503 111.382 134.395 116.895 151.793 127.543L155.97 120.72ZM281 74.0001C228.787 74.0001 183.772 91.4888 151.188 121.174L156.575 127.088C187.56 98.8593 230.604 82.0001 281 82.0001V74.0001ZM323.724 78.4044C310.015 75.5201 295.721 74.0001 281 74.0001V82.0001C295.17 82.0001 308.911 83.463 322.077 86.233L323.724 78.4044ZM321.731 70.6605C320.383 74.4447 319.467 78.1405 318.942 81.7422L326.859 82.8952C327.304 79.8392 328.088 76.6556 329.267 73.3442L321.731 70.6605ZM413.341 -1.76753C406.349 -4.25734 397.928 -3.12363 389.494 0.0111412C380.961 3.18253 371.863 8.60069 363.151 15.4942C345.768 29.249 329.315 49.3632 321.731 70.6605L329.267 73.3442C336.23 53.7921 351.599 34.8362 368.115 21.7679C376.353 15.2498 384.725 10.3182 392.281 7.50995C399.935 4.66512 406.222 4.18944 410.657 5.7689L413.341 -1.76753ZM432.267 127.844C439.814 106.649 441.379 76.8873 438.244 51.4949C436.673 38.7675 433.894 26.8971 429.948 17.5827C426.097 8.49354 420.719 0.859794 413.341 -1.76753L410.657 5.7689C414.706 7.21085 418.923 12.0683 422.581 20.7035C426.144 29.1133 428.789 40.2004 430.304 52.475C433.343 77.0864 431.73 105.506 424.731 125.16L432.267 127.844Z" fill="black" mask="url(#path-1-inside-1_102_2)"/>
<mask id="mask0_102_2" style="mask-type:alpha" maskUnits="userSpaceOnUse" x="43" y="0" width="427" height="433">
<mask id="path-3-inside-2_102_2" fill="white">
<path fill-rule="evenodd" clip-rule="evenodd" d="M428.499 126.502C426.801 131.27 425.069 135.322 423.296 138.746C452.498 170.392 470 211.966 470 257.5C457.5 357.5 399 410.5 281 430C166.501 448.922 83.0009 356 100 250.5C100 242.664 100.468 234.988 101.384 227.497C67.1202 200.754 33.2122 140.103 46.2086 120.976C59.413 101.543 117.643 101.952 153.882 124.131C185.666 95.174 229.695 78.0001 281 78.0001C295.445 78.0001 309.463 79.4916 322.9 82.3187C323.385 78.9898 324.236 75.5501 325.499 72.0023C340.045 31.1529 389.144 -6.13786 411.999 2.00069C434.854 10.1392 443.045 85.6529 428.499 126.502Z"/>
</mask>
<path fill-rule="evenodd" clip-rule="evenodd" d="M428.499 126.502C426.801 131.27 425.069 135.322 423.296 138.746C452.498 170.392 470 211.966 470 257.5C457.5 357.5 399 410.5 281 430C166.501 448.922 83.0009 356 100 250.5C100 242.664 100.468 234.988 101.384 227.497C67.1202 200.754 33.2122 140.103 46.2086 120.976C59.413 101.543 117.643 101.952 153.882 124.131C185.666 95.174 229.695 78.0001 281 78.0001C295.445 78.0001 309.463 79.4916 322.9 82.3187C323.385 78.9898 324.236 75.5501 325.499 72.0023C340.045 31.1529 389.144 -6.13786 411.999 2.00069C434.854 10.1392 443.045 85.6529 428.499 126.502Z" fill="#D9D9D9"/>
<path d="M423.296 138.746L419.744 136.908L418.455 139.398L420.357 141.459L423.296 138.746ZM428.499 126.502L424.731 125.16V125.16L428.499 126.502ZM470 257.5L473.969 257.996L474 257.749V257.5H470ZM281 430L281.652 433.947L281 430ZM100 250.5L103.949 251.136L104 250.82V250.5H100ZM101.384 227.497L105.354 227.982L105.628 225.736L103.845 224.344L101.384 227.497ZM46.2086 120.976L42.9001 118.728H42.9001L46.2086 120.976ZM153.882 124.131L151.793 127.543L154.355 129.111L156.575 127.088L153.882 124.131ZM322.9 82.3187L322.077 86.233L326.245 87.1099L326.859 82.8952L322.9 82.3187ZM325.499 72.0023L321.731 70.6605V70.6605L325.499 72.0023ZM411.999 2.00069L410.657 5.7689L411.999 2.00069ZM426.849 140.585C428.721 136.966 430.523 132.742 432.267 127.844L424.731 125.16C423.079 129.797 421.416 133.677 419.744 136.908L426.849 140.585ZM474 257.5C474 210.914 456.087 168.383 426.236 136.034L420.357 141.459C448.909 172.401 466 213.018 466 257.5H474ZM281.652 433.947C341.072 424.127 386.037 405.794 417.756 376.894C449.553 347.924 467.63 308.712 473.969 257.996L466.031 257.004C459.87 306.289 442.447 343.576 412.368 370.981C382.213 398.456 338.928 416.373 280.348 426.054L281.652 433.947ZM96.0509 249.864C78.6416 357.91 164.306 453.338 281.652 433.947L280.348 426.054C168.695 444.505 87.3603 354.09 103.949 251.136L96.0509 249.864ZM97.413 227.012C96.4779 234.667 96 242.504 96 250.5H104C104 242.823 104.459 235.31 105.354 227.982L97.413 227.012ZM42.9001 118.728C38.6961 124.915 38.6715 133.697 40.6175 142.767C42.6079 152.044 46.8702 162.615 52.5436 173.261C63.8766 194.529 81.2511 216.858 98.9223 230.651L103.845 224.344C87.2527 211.394 70.5415 190.025 59.6037 169.499C54.1417 159.249 50.2224 149.399 48.4395 141.089C46.6123 132.572 47.2228 126.601 49.5171 123.224L42.9001 118.728ZM155.97 120.72C137.129 109.189 112.787 103.408 91.4932 102.95C80.8268 102.721 70.7447 103.823 62.3652 106.318C54.0757 108.788 46.9425 112.779 42.9001 118.728L49.5171 123.224C52.0769 119.457 57.1741 116.212 64.6489 113.986C72.0338 111.786 81.2499 110.732 91.3213 110.948C111.503 111.382 134.395 116.895 151.793 127.543L155.97 120.72ZM281 74.0001C228.787 74.0001 183.772 91.4888 151.188 121.174L156.575 127.088C187.56 98.8593 230.604 82.0001 281 82.0001V74.0001ZM323.724 78.4044C310.015 75.5201 295.721 74.0001 281 74.0001V82.0001C295.17 82.0001 308.911 83.463 322.077 86.233L323.724 78.4044ZM321.731 70.6605C320.383 74.4447 319.467 78.1405 318.942 81.7422L326.859 82.8952C327.304 79.8392 328.088 76.6556 329.267 73.3442L321.731 70.6605ZM413.341 -1.76753C406.349 -4.25734 397.928 -3.12363 389.494 0.0111412C380.961 3.18253 371.863 8.60069 363.151 15.4942C345.768 29.249 329.315 49.3632 321.731 70.6605L329.267 73.3442C336.23 53.7921 351.599 34.8362 368.115 21.7679C376.353 15.2498 384.725 10.3182 392.281 7.50995C399.935 4.66512 406.222 4.18944 410.657 5.7689L413.341 -1.76753ZM432.267 127.844C439.814 106.649 441.379 76.8873 438.244 51.4949C436.673 38.7675 433.894 26.8971 429.948 17.5827C426.097 8.49354 420.719 0.859794 413.341 -1.76753L410.657 5.7689C414.706 7.21085 418.923 12.0683 422.581 20.7035C426.144 29.1133 428.789 40.2004 430.304 52.475C433.343 77.0864 431.73 105.506 424.731 125.16L432.267 127.844Z" fill="black" mask="url(#path-3-inside-2_102_2)"/>
</mask>
<g mask="url(#mask0_102_2)">
<ellipse cx="130.5" cy="162" rx="107.5" ry="111" fill="#3D3331"/>
<ellipse cx="277" cy="92.0001" rx="45" ry="35" fill="#8D8380"/>
<path d="M283.5 242.5C287.167 257.667 285.4 289.2 249 294C212.6 298.8 212.167 271.333 216.5 257" stroke="black" stroke-width="4"/>
<path d="M283.953 246.689C291.81 260.17 314.92 281.697 344.505 259.954C374.09 238.211 350.552 215.341 337.501 208" stroke="black" stroke-width="4"/>
<path d="M330.5 189.498C334 181.165 349.6 165.298 384 168.498" stroke="black" stroke-width="4" stroke-linecap="round"/>
<path d="M154 250.42C157.5 242.087 173.1 226.22 207.5 229.42" stroke="black" stroke-width="4" stroke-linecap="round"/>
</g>
<mask id="path-11-inside-3_102_2" fill="white">
<path fill-rule="evenodd" clip-rule="evenodd" d="M428.499 126.502C426.801 131.27 425.069 135.322 423.296 138.746C452.498 170.392 470 211.966 470 257.5C457.5 357.5 399 410.5 281 430C166.501 448.922 83.0009 356 100 250.5C100 242.664 100.468 234.988 101.384 227.497C67.1202 200.754 33.2122 140.103 46.2086 120.976C59.413 101.543 117.643 101.952 153.882 124.131C185.666 95.174 229.695 78.0001 281 78.0001C295.445 78.0001 309.463 79.4916 322.9 82.3187C323.385 78.9898 324.236 75.5501 325.499 72.0023C340.045 31.1529 389.144 -6.13786 411.999 2.00069C434.854 10.1392 443.045 85.6529 428.499 126.502Z"/>
</mask>
<path d="M423.296 138.746L419.744 136.908L418.455 139.398L420.357 141.459L423.296 138.746ZM428.499 126.502L424.731 125.16V125.16L428.499 126.502ZM470 257.5L473.969 257.996L474 257.749V257.5H470ZM281 430L281.652 433.947L281 430ZM100 250.5L103.949 251.136L104 250.82V250.5H100ZM101.384 227.497L105.354 227.982L105.628 225.736L103.845 224.344L101.384 227.497ZM46.2086 120.976L42.9001 118.728H42.9001L46.2086 120.976ZM153.882 124.131L151.793 127.543L154.355 129.111L156.575 127.088L153.882 124.131ZM322.9 82.3187L322.077 86.233L326.245 87.1099L326.859 82.8952L322.9 82.3187ZM325.499 72.0023L321.731 70.6605V70.6605L325.499 72.0023ZM411.999 2.00069L410.657 5.7689L411.999 2.00069ZM426.849 140.585C428.721 136.966 430.523 132.742 432.267 127.844L424.731 125.16C423.079 129.797 421.416 133.677 419.744 136.908L426.849 140.585ZM474 257.5C474 210.914 456.087 168.383 426.236 136.034L420.357 141.459C448.909 172.401 466 213.018 466 257.5H474ZM281.652 433.947C341.072 424.127 386.037 405.794 417.756 376.894C449.553 347.924 467.63 308.712 473.969 257.996L466.031 257.004C459.87 306.289 442.447 343.576 412.368 370.981C382.213 398.456 338.928 416.373 280.348 426.054L281.652 433.947ZM96.0509 249.864C78.6416 357.91 164.306 453.338 281.652 433.947L280.348 426.054C168.695 444.505 87.3603 354.09 103.949 251.136L96.0509 249.864ZM97.413 227.012C96.4779 234.667 96 242.504 96 250.5H104C104 242.823 104.459 235.31 105.354 227.982L97.413 227.012ZM42.9001 118.728C38.6961 124.915 38.6715 133.697 40.6175 142.767C42.6079 152.044 46.8702 162.615 52.5436 173.261C63.8766 194.529 81.2511 216.858 98.9223 230.651L103.845 224.344C87.2527 211.394 70.5415 190.025 59.6037 169.499C54.1417 159.249 50.2224 149.399 48.4395 141.089C46.6123 132.572 47.2228 126.601 49.5171 123.224L42.9001 118.728ZM155.97 120.72C137.129 109.189 112.787 103.408 91.4932 102.95C80.8268 102.721 70.7447 103.823 62.3652 106.318C54.0757 108.788 46.9425 112.779 42.9001 118.728L49.5171 123.224C52.0769 119.457 57.1741 116.212 64.6489 113.986C72.0338 111.786 81.2499 110.732 91.3213 110.948C111.503 111.382 134.395 116.895 151.793 127.543L155.97 120.72ZM281 74.0001C228.787 74.0001 183.772 91.4888 151.188 121.174L156.575 127.088C187.56 98.8593 230.604 82.0001 281 82.0001V74.0001ZM323.724 78.4044C310.015 75.5201 295.721 74.0001 281 74.0001V82.0001C295.17 82.0001 308.911 83.463 322.077 86.233L323.724 78.4044ZM321.731 70.6605C320.383 74.4447 319.467 78.1405 318.942 81.7422L326.859 82.8952C327.304 79.8392 328.088 76.6556 329.267 73.3442L321.731 70.6605ZM413.341 -1.76753C406.349 -4.25734 397.928 -3.12363 389.494 0.0111412C380.961 3.18253 371.863 8.60069 363.151 15.4942C345.768 29.249 329.315 49.3632 321.731 70.6605L329.267 73.3442C336.23 53.7921 351.599 34.8362 368.115 21.7679C376.353 15.2498 384.725 10.3182 392.281 7.50995C399.935 4.66512 406.222 4.18944 410.657 5.7689L413.341 -1.76753ZM432.267 127.844C439.814 106.649 441.379 76.8873 438.244 51.4949C436.673 38.7675 433.894 26.8971 429.948 17.5827C426.097 8.49354 420.719 0.859794 413.341 -1.76753L410.657 5.7689C414.706 7.21085 418.923 12.0683 422.581 20.7035C426.144 29.1133 428.789 40.2004 430.304 52.475C433.343 77.0864 431.73 105.506 424.731 125.16L432.267 127.844Z" fill="black" mask="url(#path-11-inside-3_102_2)"/>
<path d="M295 229C295 231.786 293.44 234.489 290.557 236.571C287.676 238.651 283.597 240 279 240C274.403 240 270.324 238.651 267.443 236.571C264.56 234.489 263 231.786 263 229C263 226.214 264.56 223.511 267.443 221.429C270.324 219.349 274.403 218 279 218C283.597 218 287.676 219.349 290.557 221.429C293.44 223.511 295 226.214 295 229Z" fill="#D9D9D9" stroke="black" stroke-width="4"/>
<circle cx="412" cy="217" r="26" fill="#F8C7BB"/>
<circle cx="155" cy="309" r="26" fill="#F8C7BB"/>
<path d="M311.189 235.277C356.189 208.444 462.789 157.277 529.189 167.277" stroke="black" stroke-width="2" stroke-linecap="round"/>
<path d="M307.999 251.302C353.543 225.402 461.175 176.444 527.355 187.811" stroke="black" stroke-width="2" stroke-linecap="round"/>
<path d="M332.689 247.545C381.598 228.758 495.349 196.473 559.079 217.623" stroke="black" stroke-width="2" stroke-linecap="round"/>
<path d="M243.593 255.218C191.321 251.66 73.1068 254.286 18.4249 293.259" stroke="black" stroke-width="2" stroke-linecap="round"/>
<path d="M263.937 267.113C211.602 264.633 93.4669 269.697 39.6001 309.788" stroke="black" stroke-width="2" stroke-linecap="round"/>
<path d="M244.178 280.537C192.062 285.923 76.0177 308.623 28.763 356.33" stroke="black" stroke-width="2" stroke-linecap="round"/>
<circle cx="242.5" cy="254.5" r="2.5" fill="black"/>
<circle cx="244.5" cy="280.5" r="2.5" fill="black"/>
<circle cx="263.5" cy="266.5" r="2.5" fill="black"/>
<circle cx="309.5" cy="251.5" r="2.5" fill="black"/>
<circle cx="312.5" cy="233.5" r="2.5" fill="black"/>
<circle cx="333.5" cy="244.5" r="2.5" fill="black"/>
</svg>
