<svg width="703" height="690" viewBox="0 0 703 690" fill="none" xmlns="http://www.w3.org/2000/svg">
<g filter="url(#filter0_dddd_301_2)">
<mask id="path-1-outside-1_301_2" maskUnits="userSpaceOnUse" x="55.9536" y="0.966614" width="592" height="564" fill="black">
<rect fill="white" x="55.9536" y="0.966614" width="592" height="564"/>
<path fill-rule="evenodd" clip-rule="evenodd" d="M241.756 107.424C241.438 106.988 241.12 106.552 240.801 106.116C207.724 60.8952 141.322 14.941 120.979 29.8209C83.9041 56.94 95.8395 142.734 128.917 187.955C131.512 191.503 134.272 194.849 137.174 197.99C102.531 242.996 81.9536 292.058 81.9536 328.62C81.9536 407.021 202.661 538.441 351.562 538.441C500.462 538.441 621.17 407.021 621.17 328.62C621.17 293.075 601.721 245.715 568.807 201.753C573.057 197.561 577.046 192.959 580.706 187.955C613.784 142.734 625.719 56.9401 588.644 29.8209C568.301 14.941 501.899 60.8952 468.822 106.116C467.876 107.409 466.939 108.698 466.012 109.983C431.271 90.4142 392.481 78.1892 351.562 78.1892C312.457 78.1892 275.296 89.3543 241.756 107.424Z"/>
</mask>
<path fill-rule="evenodd" clip-rule="evenodd" d="M241.756 107.424C241.438 106.988 241.12 106.552 240.801 106.116C207.724 60.8952 141.322 14.941 120.979 29.8209C83.9041 56.94 95.8395 142.734 128.917 187.955C131.512 191.503 134.272 194.849 137.174 197.99C102.531 242.996 81.9536 292.058 81.9536 328.62C81.9536 407.021 202.661 538.441 351.562 538.441C500.462 538.441 621.17 407.021 621.17 328.62C621.17 293.075 601.721 245.715 568.807 201.753C573.057 197.561 577.046 192.959 580.706 187.955C613.784 142.734 625.719 56.9401 588.644 29.8209C568.301 14.941 501.899 60.8952 468.822 106.116C467.876 107.409 466.939 108.698 466.012 109.983C431.271 90.4142 392.481 78.1892 351.562 78.1892C312.457 78.1892 275.296 89.3543 241.756 107.424Z" fill="#FDC441"/>
<path d="M240.801 106.116L219.86 121.433L219.86 121.434L240.801 106.116ZM241.756 107.424L220.783 122.699L234.12 141.009L254.062 130.266L241.756 107.424ZM120.979 29.8209L136.297 50.7622L120.979 29.8209ZM128.917 187.955L107.975 203.273L128.917 187.955ZM137.174 197.99L157.734 213.815L171.088 196.466L156.232 180.384L137.174 197.99ZM568.807 201.753L550.588 183.281L534.469 199.179L548.038 217.303L568.807 201.753ZM580.706 187.955L601.648 203.273L601.648 203.273L580.706 187.955ZM588.644 29.8209L573.326 50.7622L573.326 50.7622L588.644 29.8209ZM468.822 106.116L489.763 121.434L489.764 121.433L468.822 106.116ZM466.012 109.983L453.279 132.589L473.482 143.969L487.051 125.166L466.012 109.983ZM219.86 121.434C220.169 121.856 220.477 122.278 220.783 122.699L262.728 92.1489C262.4 91.6989 262.072 91.2485 261.742 90.7976L219.86 121.434ZM136.297 50.7622C130.887 54.7193 128.05 51.4838 136.078 53.927C142.427 55.859 151.351 60.2106 161.876 67.1202C182.852 80.89 205.353 101.602 219.86 121.433L261.742 90.7978C243.171 65.409 215.933 40.5335 190.353 23.741C177.601 15.3696 164.042 8.19632 151.186 4.28376C140.009 0.88237 121.243 -2.5174 105.661 8.87962L136.297 50.7622ZM149.858 172.637C136.549 154.442 126.655 126.438 124.501 99.9931C122.197 71.721 129.217 55.9406 136.297 50.7622L105.661 8.87962C75.6659 30.8203 70.1161 71.4967 72.781 104.207C75.5947 138.744 88.2076 176.248 107.975 203.273L149.858 172.637ZM156.232 180.384C153.997 177.965 151.866 175.383 149.858 172.637L107.975 203.273C111.157 207.623 114.547 211.732 118.115 215.595L156.232 180.384ZM107.899 328.62C107.899 300.11 124.832 256.56 157.734 213.815L116.613 182.164C80.2294 229.433 56.0081 284.007 56.0081 328.62H107.899ZM351.562 512.495C284.738 512.495 223.18 482.899 177.997 443.398C155.487 423.718 137.626 402.068 125.542 381.389C113.263 360.378 107.899 342.035 107.899 328.62H56.0081C56.0081 354.405 65.7325 381.89 80.7398 407.571C95.9414 433.584 117.563 459.488 143.843 482.464C196.239 528.272 269.485 564.386 351.562 564.386V512.495ZM595.224 328.62C595.224 342.035 589.86 360.378 577.582 381.389C565.498 402.068 547.636 423.718 525.126 443.398C479.944 482.899 418.386 512.495 351.562 512.495V564.386C433.638 564.386 506.885 528.272 559.281 482.464C585.56 459.488 607.182 433.584 622.384 407.571C637.391 381.89 647.115 354.405 647.115 328.62H595.224ZM548.038 217.303C579.271 259.02 595.224 300.952 595.224 328.62H647.115C647.115 285.197 624.172 232.41 589.577 186.203L548.038 217.303ZM559.765 172.637C556.933 176.509 553.856 180.058 550.588 183.281L587.026 220.226C592.259 215.065 597.159 209.409 601.648 203.273L559.765 172.637ZM573.326 50.7622C580.406 55.9407 587.426 71.721 585.122 99.9931C582.968 126.438 573.075 154.442 559.765 172.637L601.648 203.273C621.415 176.248 634.028 138.744 636.842 104.207C639.507 71.4967 633.957 30.8203 603.962 8.87963L573.326 50.7622ZM489.764 121.433C504.27 101.602 526.771 80.8901 547.747 67.1203C558.272 60.2106 567.196 55.859 573.545 53.927C581.573 51.4838 578.736 54.7193 573.326 50.7622L603.962 8.87964C588.381 -2.51739 569.614 0.882388 558.437 4.28377C545.581 8.19634 532.023 15.3696 519.27 23.7411C493.69 40.5335 466.452 65.409 447.881 90.7978L489.764 121.433ZM487.051 125.166C487.943 123.93 488.847 122.686 489.763 121.434L447.881 90.7977C446.905 92.1319 445.935 93.4662 444.973 94.8L487.051 125.166ZM351.562 104.135C387.226 104.135 421.668 114.784 453.279 132.589L478.745 87.3769C440.874 66.0447 397.736 52.2437 351.562 52.2437V104.135ZM254.062 130.266C284.513 113.86 317.476 104.135 351.562 104.135V52.2437C307.437 52.2437 266.079 64.8488 229.45 84.5824L254.062 130.266Z" fill="white" mask="url(#path-1-outside-1_301_2)"/>
</g>
<mask id="path-3-outside-2_301_2" maskUnits="userSpaceOnUse" x="64.9536" y="9.96661" width="574" height="546" fill="black">
<rect fill="white" x="64.9536" y="9.96661" width="574" height="546"/>
<path fill-rule="evenodd" clip-rule="evenodd" d="M241.756 107.424C241.438 106.988 241.12 106.552 240.801 106.116C207.724 60.8952 141.322 14.941 120.979 29.8209C83.9041 56.94 95.8395 142.734 128.917 187.955C131.512 191.503 134.272 194.849 137.174 197.99C102.531 242.996 81.9536 292.058 81.9536 328.62C81.9536 407.021 202.661 538.441 351.562 538.441C500.462 538.441 621.17 407.021 621.17 328.62C621.17 293.075 601.721 245.715 568.807 201.753C573.057 197.561 577.046 192.959 580.706 187.955C613.784 142.734 625.719 56.9401 588.644 29.8209C568.301 14.941 501.899 60.8952 468.822 106.116C467.876 107.409 466.939 108.698 466.012 109.983C431.271 90.4142 392.481 78.1892 351.562 78.1892C312.457 78.1892 275.296 89.3543 241.756 107.424Z"/>
</mask>
<path fill-rule="evenodd" clip-rule="evenodd" d="M241.756 107.424C241.438 106.988 241.12 106.552 240.801 106.116C207.724 60.8952 141.322 14.941 120.979 29.8209C83.9041 56.94 95.8395 142.734 128.917 187.955C131.512 191.503 134.272 194.849 137.174 197.99C102.531 242.996 81.9536 292.058 81.9536 328.62C81.9536 407.021 202.661 538.441 351.562 538.441C500.462 538.441 621.17 407.021 621.17 328.62C621.17 293.075 601.721 245.715 568.807 201.753C573.057 197.561 577.046 192.959 580.706 187.955C613.784 142.734 625.719 56.9401 588.644 29.8209C568.301 14.941 501.899 60.8952 468.822 106.116C467.876 107.409 466.939 108.698 466.012 109.983C431.271 90.4142 392.481 78.1892 351.562 78.1892C312.457 78.1892 275.296 89.3543 241.756 107.424Z" fill="#FDC441"/>
<path d="M240.801 106.116L227.143 116.105L227.144 116.106L240.801 106.116ZM241.756 107.424L228.078 117.386L236.776 129.328L249.781 122.321L241.756 107.424ZM120.979 29.8209L130.969 43.4782L120.979 29.8209ZM128.917 187.955L115.259 197.945L128.917 187.955ZM137.174 197.99L150.582 208.311L159.292 196.996L149.603 186.508L137.174 197.99ZM568.807 201.753L556.925 189.706L546.412 200.075L555.262 211.894L568.807 201.753ZM580.706 187.955L594.364 197.945L594.364 197.945L580.706 187.955ZM588.644 29.8209L578.654 43.4783L578.654 43.4783L588.644 29.8209ZM468.822 106.116L482.48 116.106L482.48 116.105L468.822 106.116ZM466.012 109.983L457.708 124.726L470.884 132.148L479.733 119.885L466.012 109.983ZM227.144 116.106C227.456 116.533 227.768 116.96 228.078 117.386L255.433 97.462C255.109 97.017 254.784 96.5715 254.458 96.1256L227.144 116.106ZM130.969 43.4782C129.21 44.7651 130.13 42.6836 138.706 45.2934C146.186 47.5699 155.916 52.4122 166.829 59.576C188.605 73.8715 211.93 95.3074 227.143 116.105L254.458 96.1257C236.594 71.7034 210.18 47.552 185.4 31.2853C173.035 23.168 160.283 16.4855 148.558 12.9174C137.929 9.68262 122.92 7.4368 110.989 16.1635L130.969 43.4782ZM142.574 177.965C128.141 158.234 117.775 128.578 115.506 100.726C113.14 71.682 119.904 51.5719 130.969 43.4782L110.989 16.1635C84.9792 35.1891 79.1737 71.5357 81.7757 103.474C84.4748 136.604 96.6148 172.455 115.259 197.945L142.574 177.965ZM149.603 186.508C147.136 183.838 144.786 180.99 142.574 177.965L115.259 197.945C118.237 202.016 121.408 205.86 124.744 209.471L149.603 186.508ZM98.8746 328.62C98.8746 297.309 117.075 251.842 150.582 208.311L123.765 187.669C87.9864 234.151 65.0326 286.807 65.0326 328.62H98.8746ZM351.562 521.52C282.085 521.52 218.495 490.79 172.057 450.192C148.892 429.939 130.376 407.549 117.75 385.942C104.997 364.119 98.8746 344.187 98.8746 328.62H65.0326C65.0326 352.254 73.9987 378.149 88.5314 403.017C103.191 428.103 124.159 453.267 149.783 475.67C200.924 520.381 272.138 555.362 351.562 555.362V521.52ZM604.249 328.62C604.249 344.187 598.127 364.119 585.373 385.942C572.747 407.549 554.232 429.939 531.066 450.192C484.629 490.79 421.038 521.52 351.562 521.52V555.362C430.986 555.362 502.199 520.381 553.341 475.67C578.965 453.267 599.933 428.103 614.592 403.017C629.125 378.149 638.091 352.254 638.091 328.62H604.249ZM555.262 211.894C587.08 254.392 604.249 298.212 604.249 328.62H638.091C638.091 287.937 616.363 237.038 582.352 191.612L555.262 211.894ZM567.049 177.965C563.929 182.231 560.535 186.146 556.925 189.706L580.689 213.8C585.58 208.977 590.164 203.687 594.364 197.945L567.049 177.965ZM578.654 43.4783C589.719 51.5719 596.483 71.682 594.117 100.726C591.848 128.578 581.482 158.234 567.049 177.965L594.364 197.945C613.008 172.455 625.148 136.604 627.847 103.474C630.449 71.5357 624.644 35.1891 598.634 16.1636L578.654 43.4783ZM482.48 116.105C497.693 95.3074 521.018 73.8715 542.794 59.5761C553.707 52.4122 563.437 47.5699 570.918 45.2934C579.493 42.6836 580.413 44.7651 578.654 43.4783L598.634 16.1636C586.703 7.43682 571.694 9.68264 561.065 12.9174C549.34 16.4855 536.588 23.168 524.223 31.2853C499.443 47.552 473.029 71.7034 455.165 96.1258L482.48 116.105ZM479.733 119.885C480.637 118.632 481.553 117.372 482.48 116.106L455.165 96.1257C454.199 97.4457 453.241 98.7643 452.291 100.081L479.733 119.885ZM351.562 95.1102C389.054 95.1102 425.008 106.307 457.708 124.726L474.316 95.2399C437.534 74.521 395.908 61.2682 351.562 61.2682V95.1102ZM249.781 122.321C281.307 105.336 315.73 95.1102 351.562 95.1102V61.2682C309.183 61.2682 269.285 73.3725 233.73 92.5273L249.781 122.321Z" fill="#3F1609" mask="url(#path-3-outside-2_301_2)"/>
<path d="M509.051 129.93C505.261 135.111 503.432 149.386 532.483 170.636C561.534 191.886 570.065 183.293 574.227 177.603C599.946 142.441 607.124 63.6355 587.315 49.1456C575.978 40.8536 534.771 94.7679 509.051 129.93Z" fill="#FFFFFB"/>
<path d="M509.051 129.93C505.261 135.111 503.432 149.386 532.483 170.636C561.534 191.886 570.065 183.293 574.227 177.603C599.946 142.441 607.124 63.6355 587.315 49.1456C575.978 40.8536 534.771 94.7679 509.051 129.93Z" fill="#FFFFFB"/>
<path d="M200.572 129.93C204.362 135.111 206.191 149.386 177.14 170.636C148.089 191.886 139.558 183.293 135.396 177.603C109.677 142.441 102.499 63.6355 122.309 49.1456C133.645 40.8536 174.852 94.7679 200.572 129.93Z" fill="#FFFFFB"/>
<path d="M294.014 290.517C299.76 289.352 303.568 283.651 301.088 278.338C297.735 271.153 292.545 264.881 285.951 260.185C276.426 253.401 264.668 250.401 253.01 251.78C241.351 253.159 230.642 258.816 223.007 267.629C217.713 273.741 214.164 281.062 212.627 288.842C211.494 294.574 216.521 299.194 222.36 298.987V298.987C228.206 298.78 232.577 293.675 234.781 288.256C235.813 285.719 237.263 283.343 239.093 281.23C243.275 276.403 249.14 273.304 255.526 272.549C261.912 271.794 268.352 273.437 273.57 277.152C275.876 278.795 277.868 280.789 279.485 283.04C282.883 287.77 288.306 291.675 294.014 290.517V290.517Z" fill="#3F1609"/>
<ellipse cx="242.863" cy="206.919" rx="25.9456" ry="17.485" transform="rotate(-9.59049 242.863 206.919)" fill="#FFFFFB"/>
<ellipse cx="25.9456" cy="17.485" rx="25.9456" ry="17.485" transform="matrix(-0.986024 -0.166605 -0.166606 0.986024 480.051 194.001)" fill="#FFFFFB"/>
<ellipse cx="442.237" cy="276.165" rx="32.714" ry="32.1499" fill="#3F1609"/>
<path fill-rule="evenodd" clip-rule="evenodd" d="M603.85 358.549C604.989 354.955 604.238 351.045 601.781 348.186C583.397 326.795 553.087 312.827 518.808 312.827C490.164 312.827 464.29 322.581 445.832 338.269C437.724 345.16 422.135 343.182 415.845 334.6C400.655 313.875 376.134 300.419 348.47 300.419C321.09 300.419 296.789 313.601 281.566 333.965C275.622 341.916 262.192 343.674 254.532 337.358C236.151 322.204 210.729 312.827 182.643 312.827C148.334 312.827 118 326.82 99.6213 348.244C97.1677 351.104 96.4197 355.013 97.5594 358.605C122.998 438.774 241.334 530.543 350.696 530.544C460.084 530.543 578.449 438.731 603.85 358.549Z" fill="white"/>
<path d="M389.218 335.953C389.218 353.086 358.828 374.871 349.171 374.871C339.514 374.871 309.125 353.086 309.125 335.953C309.125 318.82 339.514 312.827 349.171 312.827C358.828 312.827 389.218 318.82 389.218 335.953Z" fill="#3F1609"/>
<path d="M349.384 396.973L349.384 360.875" stroke="#3F1609" stroke-width="13.5368" stroke-linecap="round" stroke-linejoin="round"/>
<circle cx="443.499" cy="273.909" r="9.58857" fill="white"/>
<rect x="322.31" y="396.973" width="53.0192" height="62.0437" rx="23.6894" fill="#FB7575"/>
<path d="M275.283 394.048C279.749 400.065 292.659 412.097 308.573 412.097C328.466 412.097 338.616 399.505 349.171 399.505C359.727 399.505 369.876 412.097 389.769 412.097C405.684 412.097 418.594 400.065 423.06 394.048" stroke="#3F1609" stroke-width="13.5368" stroke-linecap="round" stroke-linejoin="round"/>
<defs>
<filter id="filter0_dddd_301_2" x="0.387096" y="0.849286" width="702.349" height="688.684" filterUnits="userSpaceOnUse" color-interpolation-filters="sRGB">
<feFlood flood-opacity="0" result="BackgroundImageFix"/>
<feColorMatrix in="SourceAlpha" type="matrix" values="0 0 0 0 0 0 0 0 0 0 0 0 0 0 0 0 0 0 127 0" result="hardAlpha"/>
<feOffset dy="3.04177"/>
<feGaussianBlur stdDeviation="1.60779"/>
<feColorMatrix type="matrix" values="0 0 0 0 0 0 0 0 0 0 0 0 0 0 0 0 0 0 0.02275 0"/>
<feBlend mode="normal" in2="BackgroundImageFix" result="effect1_dropShadow_301_2"/>
<feColorMatrix in="SourceAlpha" type="matrix" values="0 0 0 0 0 0 0 0 0 0 0 0 0 0 0 0 0 0 127 0" result="hardAlpha"/>
<feOffset dy="13.9052"/>
<feGaussianBlur stdDeviation="4.5192"/>
<feColorMatrix type="matrix" values="0 0 0 0 0 0 0 0 0 0 0 0 0 0 0 0 0 0 0.035 0"/>
<feBlend mode="normal" in2="effect1_dropShadow_301_2" result="effect2_dropShadow_301_2"/>
<feColorMatrix in="SourceAlpha" type="matrix" values="0 0 0 0 0 0 0 0 0 0 0 0 0 0 0 0 0 0 127 0" result="hardAlpha"/>
<feOffset dy="35.1976"/>
<feGaussianBlur stdDeviation="12.1236"/>
<feColorMatrix type="matrix" values="0 0 0 0 0 0 0 0 0 0 0 0 0 0 0 0 0 0 0.04725 0"/>
<feBlend mode="normal" in2="effect2_dropShadow_301_2" result="effect3_dropShadow_301_2"/>
<feColorMatrix in="SourceAlpha" type="matrix" values="0 0 0 0 0 0 0 0 0 0 0 0 0 0 0 0 0 0 127 0" result="hardAlpha"/>
<feOffset dy="69.5262"/>
<feGaussianBlur stdDeviation="27.8105"/>
<feColorMatrix type="matrix" values="0 0 0 0 0 0 0 0 0 0 0 0 0 0 0 0 0 0 0.07 0"/>
<feBlend mode="normal" in2="effect3_dropShadow_301_2" result="effect4_dropShadow_301_2"/>
<feBlend mode="normal" in="SourceGraphic" in2="effect4_dropShadow_301_2" result="shape"/>
</filter>
</defs>
</svg>
